HIERARCHY
ROOT Hips
{
    OFFSET   0.000000   0.000000   0.000000
    CHANNELS 6 Xposition Yposition Zposition Zrotation Xrotation Yrotation
    JOINT Chest
    {
        OFFSET   0.000000   8.007230   0.000000
        CHANNELS 3 Zrotation Xrotation Yrotation
        JOINT Chest2
        {
            OFFSET   0.000000  22.077100   0.000000
            CHANNELS 3 Zrotation Xrotation Yrotation
            JOINT Neck
            {
                OFFSET   0.000000  23.255100   0.000000
                CHANNELS 3 Zrotation Xrotation Yrotation
                JOINT Head
                {
                    OFFSET   0.000000  14.370100   1.956600
                    CHANNELS 3 Zrotation Xrotation Yrotation
                    End Site
                    {
                        OFFSET   0.000000  19.566000   0.000000
                    }
                }
            }
            JOINT LeftCollar
            {
                OFFSET   3.911900  19.017000  -0.467063
                CHANNELS 3 Zrotation Xrotation Yrotation
                JOINT LeftShoulder
                {
                    OFFSET  10.383700   0.000000   0.000000
                    CHANNELS 3 Zrotation Xrotation Yrotation
                    JOINT LeftElbow
                    {
                        OFFSET  26.662100   0.001193   0.000980
                        CHANNELS 3 Zrotation Xrotation Yrotation
                        JOINT LeftWrist
                        {
                            OFFSET  28.869000  -0.000059  -0.000082
                            CHANNELS 3 Zrotation Xrotation Yrotation
                            JOINT LeftFinger0
                            {
                                OFFSET   2.044650  -2.323450   3.252850
                                CHANNELS 3 Zrotation Xrotation Yrotation
                                JOINT LeftFinger01
                                {
                                    OFFSET   3.088130   0.000000   0.000000
                                    CHANNELS 3 Zrotation Xrotation Yrotation
                                    JOINT LeftFinger02
                                    {
                                        OFFSET   2.639460   0.000000   0.000000
                                        CHANNELS 3 Zrotation Xrotation Yrotation
                                        End Site
                                        {
                                            OFFSET   2.582190   0.000000   0.000000
                                        }
                                    }
                                }
                            }
                            JOINT LeftFinger1
                            {
                                OFFSET   8.364480   0.000000   3.252850
                                CHANNELS 3 Zrotation Xrotation Yrotation
                                JOINT LeftFinger11
                                {
                                    OFFSET   4.646930   0.000000   0.000000
                                    CHANNELS 3 Zrotation Xrotation Yrotation
                                    JOINT LeftFinger12
                                    {
                                        OFFSET   2.323470   0.000000   0.000000
                                        CHANNELS 3 Zrotation Xrotation Yrotation
                                        End Site
                                        {
                                            OFFSET   2.273050   0.000000   0.000000
                                        }
                                    }
                                }
                            }
                            JOINT LeftFinger2
                            {
                                OFFSET   8.364490   0.000016   1.078090
                                CHANNELS 3 Zrotation Xrotation Yrotation
                                JOINT LeftFinger21
                                {
                                    OFFSET   5.111610   0.000000   0.000000
                                    CHANNELS 3 Zrotation Xrotation Yrotation
                                    JOINT LeftFinger22
                                    {
                                        OFFSET   2.788150   0.000016   0.000000
                                        CHANNELS 3 Zrotation Xrotation Yrotation
                                        End Site
                                        {
                                            OFFSET   2.727660   0.000000   0.000000
                                        }
                                    }
                                }
                            }
                            JOINT LeftFinger3
                            {
                                OFFSET   7.899780   0.000015  -1.078090
                                CHANNELS 3 Zrotation Xrotation Yrotation
                                JOINT LeftFinger31
                                {
                                    OFFSET   4.646930   0.000000   0.000000
                                    CHANNELS 3 Zrotation Xrotation Yrotation
                                    JOINT LeftFinger32
                                    {
                                        OFFSET   2.323470   0.000000   0.000000
                                        CHANNELS 3 Zrotation Xrotation Yrotation
                                        End Site
                                        {
                                            OFFSET   2.273050   0.000000   0.000000
                                        }
                                    }
                                }
                            }
                            JOINT LeftFinger4
                            {
                                OFFSET   7.435090   0.000000  -3.252850
                                CHANNELS 3 Zrotation Xrotation Yrotation
                                JOINT LeftFinger41
                                {
                                    OFFSET   3.717550   0.000000   0.000000
                                    CHANNELS 3 Zrotation Xrotation Yrotation
                                    JOINT LeftFinger42
                                    {
                                        OFFSET   1.858770   0.000000   0.000000
                                        CHANNELS 3 Zrotation Xrotation Yrotation
                                        End Site
                                        {
                                            OFFSET   1.818440   0.000000   0.000000
                                        }
                                    }
                                }
                            }
                        }
                    }
                }
            }
            JOINT RightCollar
            {
                OFFSET  -3.911910  19.017000  -0.467062
                CHANNELS 3 Zrotation Xrotation Yrotation
                JOINT RightShoulder
                {
                    OFFSET -10.383700   0.000014   0.000000
                    CHANNELS 3 Zrotation Xrotation Yrotation
                    JOINT RightElbow
                    {
                        OFFSET -26.662100   0.001225   0.001091
                        CHANNELS 3 Zrotation Xrotation Yrotation
                        JOINT RightWrist
                        {
                            OFFSET -28.869000  -0.000020  -0.000085
                            CHANNELS 3 Zrotation Xrotation Yrotation
                            JOINT RightFinger0
                            {
                                OFFSET  -2.044650  -2.323490   3.252850
                                CHANNELS 3 Zrotation Xrotation Yrotation
                                JOINT RightFinger01
                                {
                                    OFFSET  -3.088130   0.000000   0.000000
                                    CHANNELS 3 Zrotation Xrotation Yrotation
                                    JOINT RightFinger02
                                    {
                                        OFFSET  -2.639460   0.000000   0.000000
                                        CHANNELS 3 Zrotation Xrotation Yrotation
                                        End Site
                                        {
                                            OFFSET  -2.582190   0.000000   0.000000
                                        }
                                    }
                                }
                            }
                            JOINT RightFinger1
                            {
                                OFFSET  -8.364480   0.000000   3.252850
                                CHANNELS 3 Zrotation Xrotation Yrotation
                                JOINT RightFinger11
                                {
                                    OFFSET  -4.646930   0.000000   0.000000
                                    CHANNELS 3 Zrotation Xrotation Yrotation
                                    JOINT RightFinger12
                                    {
                                        OFFSET  -2.323470   0.000000   0.000000
                                        CHANNELS 3 Zrotation Xrotation Yrotation
                                        End Site
                                        {
                                            OFFSET  -2.273050   0.000000   0.000000
                                        }
                                    }
                                }
                            }
                            JOINT RightFinger2
                            {
                                OFFSET  -8.364480   0.000000   1.078090
                                CHANNELS 3 Zrotation Xrotation Yrotation
                                JOINT RightFinger21
                                {
                                    OFFSET  -5.111620   0.000000   0.000000
                                    CHANNELS 3 Zrotation Xrotation Yrotation
                                    JOINT RightFinger22
                                    {
                                        OFFSET  -2.788160   0.000000   0.000000
                                        CHANNELS 3 Zrotation Xrotation Yrotation
                                        End Site
                                        {
                                            OFFSET  -2.727660   0.000000   0.000000
                                        }
                                    }
                                }
                            }
                            JOINT RightFinger3
                            {
                                OFFSET  -7.899780   0.000000  -1.078090
                                CHANNELS 3 Zrotation Xrotation Yrotation
                                JOINT RightFinger31
                                {
                                    OFFSET  -4.646930   0.000000   0.000000
                                    CHANNELS 3 Zrotation Xrotation Yrotation
                                    JOINT RightFinger32
                                    {
                                        OFFSET  -2.323470   0.000000   0.000000
                                        CHANNELS 3 Zrotation Xrotation Yrotation
                                        End Site
                                        {
                                            OFFSET  -2.273050   0.000000   0.000000
                                        }
                                    }
                                }
                            }
                            JOINT RightFinger4
                            {
                                OFFSET  -7.435090   0.000000  -3.252850
                                CHANNELS 3 Zrotation Xrotation Yrotation
                                JOINT RightFinger41
                                {
                                    OFFSET  -3.717550   0.000000   0.000000
                                    CHANNELS 3 Zrotation Xrotation Yrotation
                                    JOINT RightFinger42
                                    {
                                        OFFSET  -1.858760   0.000000   0.000000
                                        CHANNELS 3 Zrotation Xrotation Yrotation
                                        End Site
                                        {
                                            OFFSET  -1.818440   0.000000   0.000000
                                        }
                                    }
                                }
                            }
                        }
                    }
                }
            }
        }
    }
    JOINT LeftHip
    {
        OFFSET   9.783030   0.000000   0.000000
        CHANNELS 3 Zrotation Xrotation Yrotation
        JOINT LeftKnee
        {
            OFFSET   0.000063 -41.789100   0.000608
            CHANNELS 3 Zrotation Xrotation Yrotation
            JOINT LeftAnkle
            {
                OFFSET   0.000048 -41.133200  -0.000184
                CHANNELS 3 Zrotation Xrotation Yrotation
                JOINT LeftToe
                {
                    OFFSET   0.000000  -6.358960  14.674500
                    CHANNELS 3 Zrotation Xrotation Yrotation
                    End Site
                    {
                        OFFSET   0.000000   0.000000   3.913200
                    }
                }
            }
        }
    }
    JOINT RightHip
    {
        OFFSET  -9.783030   0.000000   0.000000
        CHANNELS 3 Zrotation Xrotation Yrotation
        JOINT RightKnee
        {
            OFFSET   0.000071 -41.789100   0.001239
            CHANNELS 3 Zrotation Xrotation Yrotation
            JOINT RightAnkle
            {
                OFFSET   0.000037 -41.133200  -0.000166
                CHANNELS 3 Zrotation Xrotation Yrotation
                JOINT RightToe
                {
                    OFFSET   0.000000  -6.358960  14.674500
                    CHANNELS 3 Zrotation Xrotation Yrotation
                    End Site
                    {
                        OFFSET   0.000000   0.000000   3.913200
                    }
                }
            }
        }
    }
}
MOTION
Frames: 5
Frame Time:   0.016667
 -1.431400  89.582000  -3.255730  -2.434640  -6.082230  -0.778102   0.544137   3.094780   0.274254   1.075780   6.192010   0.520152   1.537240   2.028330  -0.061104   2.534290   4.107010  -0.182438   0.983947  -0.422902  -2.321840 -77.898500  14.775200   3.505730  -1.167280  -1.418810 -19.645200  12.243900 -16.910800   5.491990  35.293500  21.091600 -53.281300 -30.267000   0.003111   0.005574 -10.133500  -0.002222   0.003742 -24.024400   5.327170 -11.783200 -20.105800  -0.010512   0.000759 -14.084300   0.001136   0.002182 -27.647900   0.749939  -1.445420 -30.031500   0.002931   0.000787 -20.001000  -0.012564   0.001812 -27.242800   0.739675  -1.450740 -28.095600   0.004421   0.003389 -18.711600  -0.014725   0.003068 -25.567300   0.703366  -1.472430 -38.364300  -0.003150  -0.001147 -25.550700  -0.000881  -0.003430   3.170940  -0.631319   2.647490  76.914200  11.371200  -7.808270   1.900440 -10.169700  11.103700 -10.261400  -4.153790   2.730880 -42.779100  38.588500  75.605100  28.653400  -0.003625   0.002065   9.326700  -0.004123   0.002609  24.633900   3.973330   8.593010  20.399300  -0.002846  -0.000971  14.279500  -0.000167  -0.000431  28.004100   2.282550   4.283270  32.590300  -0.002588  -0.002085  21.705200  -0.002113  -0.000548  27.241900   0.947111   1.839900  28.076900  -0.003317  -0.002070  18.699200  -0.002547  -0.000614  32.048100  -0.151569  -0.249881  48.072700   0.011555   0.003429  32.016400   0.009304  -0.006143   2.335880   8.374940  -0.320506   1.439750   0.166961  -0.248000  -2.053750  -3.658900   1.568910   0.000000   0.000000  -0.000000   3.071730   6.994190  -6.973540  -0.086191   2.362900  -5.523300  -0.949379  -4.207650   0.343242  -0.000000   0.000000  -0.000000
 -1.431310  89.582100  -3.252400  -2.449140  -6.123530  -0.783667   0.544112   3.139250   0.280300   1.075250   6.280990   0.531878   1.580940   2.028250  -0.060947   2.606270   4.106580  -0.219801   0.980857  -0.421627  -2.335910 -77.831800  14.816100   3.476130  -1.206190  -1.504610 -19.625000  12.238500 -16.901600   5.518660  35.261800  21.094300 -53.282700 -30.314800   0.003114   0.005567 -10.157400  -0.002226   0.003747 -24.033000   5.327360 -11.773200 -20.112200  -0.010514   0.000762 -14.084300   0.001136   0.002181 -27.647900   0.750071  -1.445420 -30.020700   0.002929   0.000784 -19.993800  -0.012565   0.001813 -27.242800   0.739810  -1.450740 -28.081700   0.004424   0.003392 -18.702300  -0.014725   0.003072 -25.553300   0.703366  -1.472430 -38.343400  -0.003149  -0.001142 -25.536800  -0.000881  -0.003425   3.181850  -0.641418   2.665200  76.897200  11.400100  -7.821100   1.946320 -10.208300  11.038400 -10.271100  -4.149860   2.727510 -42.775300  38.588600  75.604700  28.668200  -0.003622   0.002053   9.334100  -0.004119   0.002610  24.628400   3.964300   8.576500  20.393600  -0.002852  -0.000963  14.275500  -0.000159  -0.000426  28.005000   2.276120   4.271600  32.575900  -0.002578  -0.002082  21.695700  -0.002106  -0.000541  27.236800   0.947111   1.839900  28.055100  -0.003306  -0.002058  18.684700  -0.002538  -0.000609  32.052400  -0.151569  -0.248898  48.079100   0.011550   0.003438  32.020700   0.009310  -0.006141   2.349270   8.457610  -0.311453   1.440150   0.082906  -0.244337  -2.053990  -3.619770   1.565180  -0.000000   0.000000   0.000000   3.104040   7.044800  -6.986010  -0.106777   2.351930  -5.501800  -0.950015  -4.204650   0.333995  -0.000000   0.000000   0.000000
 -1.431170  89.582100  -3.247270  -2.472730  -6.191700  -0.794475   0.543977   3.213340   0.289824   1.074170   6.429230   0.550326   1.657770   2.028170  -0.060790   2.732900   4.106150  -0.281938   0.969071  -0.412726  -2.363690 -77.711500  14.867000   3.414960  -1.275470  -1.650880 -19.573400  12.223900 -16.874300   5.557010  35.230000  21.097000 -53.284100 -30.385000   0.003119   0.005556 -10.192500  -0.002231   0.003754 -24.042700   5.327670 -11.757100 -20.120400  -0.010516   0.000767 -14.084300   0.001137   0.002180 -27.647900   0.750203  -1.445410 -30.000800   0.002925   0.000776 -19.980500  -0.012572   0.001816 -27.242800   0.739945  -1.450740 -28.055800   0.004429   0.003401 -18.685100  -0.014727   0.003081 -25.529400   0.703365  -1.472430 -38.307600  -0.003142  -0.001130 -25.512900  -0.000882  -0.003412   3.193210  -0.657792   2.695760  76.869300  11.461400  -7.834830   2.023230 -10.284700  10.920200 -10.288500  -4.132990   2.721050 -42.768100  38.588800  75.604400  28.683000  -0.003618   0.002040   9.341490  -0.004114   0.002616  24.620000   3.955260   8.560000  20.385800  -0.002868  -0.000943  14.270100  -0.000129  -0.000414  28.006000   2.269680   4.259930  32.556200  -0.002552  -0.002073  21.682400  -0.002087  -0.000524  27.229000   0.947111   1.839900  28.021200  -0.003278  -0.002028  18.662100  -0.002516  -0.000596  32.059800  -0.151569  -0.242020  48.090200   0.011535   0.003461  32.028100   0.009326  -0.006134   2.371680   8.572330  -0.296514   1.440550  -0.001149  -0.238565  -2.054380  -3.580640   1.559270  -0.000000   0.000000  -0.000000   3.153780   7.131680  -7.005860  -0.136015   2.327860  -5.468290  -0.950674  -4.197500   0.324746  -0.000000   0.000000  -0.000000
 -1.431050  89.582100  -3.243380  -2.489710  -6.245850  -0.804523   0.543665   3.272950   0.296054   1.072980   6.548530   0.562310   1.727180   2.028400  -0.061731   2.847420   4.106310  -0.331557   0.942247  -0.384342  -2.397910 -77.592400  14.879200   3.337430  -1.340640  -1.771880 -19.490700  12.199100 -16.826500   5.573460  35.213500  21.083300 -53.269200 -30.426900   0.003119   0.005550 -10.213500  -0.002236   0.003756 -24.045800   5.323070 -11.743000 -20.122500  -0.010517   0.000770 -14.083200   0.001136   0.002186 -27.645000   0.750075  -1.438590 -29.980400   0.002924   0.000766 -19.966900  -0.012588   0.001821 -27.238300   0.739812  -1.443920 -28.030200   0.004433   0.003418 -18.668000  -0.014736   0.003090 -25.510100   0.699793  -1.465680 -38.278600  -0.003128  -0.001115 -25.493600  -0.000884  -0.003390   3.190330  -0.672802   2.723090  76.846200  11.537400  -7.822630   2.086350 -10.373200  10.804600 -10.306300  -4.093690   2.714020 -42.762900  38.589600  75.607100  28.682600  -0.003619   0.002052   9.341300  -0.004113   0.002638  24.616700   3.955410   8.560380  20.383400  -0.002894  -0.000915  14.268500  -0.000067  -0.000397  28.005700   2.271920   4.264210  32.550900  -0.002512  -0.002057  21.677500  -0.002057  -0.000497  27.224000   0.953594   1.852790  28.000100  -0.003236  -0.001981  18.648000  -0.002480  -0.000574  32.067000  -0.142461  -0.224475  48.101000   0.011511   0.003496  32.035200   0.009351  -0.006124   2.388560   8.609070  -0.285749   1.440640   0.039279  -0.234653  -2.056690  -3.602710   1.554270   0.000000   0.000000   0.000000   3.189170   7.210870  -7.022650  -0.149546   2.291750  -5.441780  -0.953262  -4.186620   0.324848   0.000000   0.000000   0.000000
 -1.430990  89.582000  -3.241300  -2.507380  -6.297140  -0.820040   0.543330   3.331700   0.302081   1.071760   6.666120   0.573898   1.802380   2.029770  -0.063845   2.971500   4.107530  -0.380624   0.915144  -0.345436  -2.431520 -77.470800  14.882000   3.253700  -1.410030  -1.902680 -19.393600  12.171000 -16.766300   5.585410  35.194500  21.064600 -53.235900 -30.446300   0.003120   0.005545 -10.223200  -0.002239   0.003757 -24.047600   5.318350 -11.734900 -20.122800  -0.010518   0.000774 -14.082100   0.001135   0.002197 -27.640400   0.749946  -1.431770 -29.959400   0.002923   0.000753 -19.953000  -0.012608   0.001826 -27.230100   0.739679  -1.437100 -28.000000   0.004439   0.003440 -18.647900  -0.014749   0.003103 -25.487700   0.696221  -1.458920 -38.244900  -0.003108  -0.001095 -25.471100  -0.000889  -0.003362   3.180300  -0.681528   2.750250  76.819700  11.630000  -7.785690   2.148650 -10.472600  10.681100 -10.322300  -4.050340   2.706110 -42.760900  38.590100  75.610000  28.680000  -0.003619   0.002063   9.340020  -0.004112   0.002666  24.615000   3.956490   8.563020  20.382100  -0.002929  -0.000878  14.267800   0.000000  -0.000374  28.004800   2.277920   4.275650  32.548400  -0.002461  -0.002037  21.674900  -0.002019  -0.000462  27.218900   0.967247   1.879820  27.980100  -0.003182  -0.001921  18.634700  -0.002433  -0.000547  32.073200  -0.125497  -0.200267  48.110100   0.011481   0.003542  32.041300   0.009384  -0.006111   2.408230   8.631330  -0.273442   1.440310   0.089336  -0.231122  -2.060390  -3.632880   1.551460  -0.000000   0.000000   0.000000   3.210970   7.284320  -7.032560  -0.155428   2.258060  -5.427230  -0.957587  -4.174530   0.325587   0.000000   0.000000   0.000000
